<svg xmlns="http://www.w3.org/2000/svg" viewBox="0 0 720 420" role="img" aria-labelledby="title desc">
  <title id="title">Art deco bronze key</title>
  <desc id="desc">Decorative bronze key with art deco lines.</desc>
  <defs>
    <linearGradient id="bronze" x1="90" y1="68" x2="636" y2="356" gradientUnits="userSpaceOnUse">
      <stop offset="0" stop-color="#e0b46e"/>
      <stop offset="0.45" stop-color="#9f7440"/>
      <stop offset="1" stop-color="#d5a45f"/>
    </linearGradient>
    <linearGradient id="darkBronze" x1="118" y1="84" x2="626" y2="340" gradientUnits="userSpaceOnUse">
      <stop offset="0" stop-color="#6f4c2b"/>
      <stop offset="1" stop-color="#b88a51"/>
    </linearGradient>
  </defs>
  <g fill="none" stroke-linecap="round" stroke-linejoin="round">
    <path d="M180 208h354" stroke="url(#bronze)" stroke-width="26"/>
    <path d="M524 208v-54h42v54h38v48h-38v42h-42v-42h-38v-48h38z" stroke="url(#darkBronze)" stroke-width="18"/>
    <circle cx="154" cy="208" r="82" stroke="url(#bronze)" stroke-width="22"/>
    <circle cx="154" cy="208" r="43" stroke="#f0cf8a" stroke-width="10"/>
    <path d="M102 208h104M154 156v104M119 173l70 70M189 173l-70 70" stroke="#9f7440" stroke-width="8"/>
    <path d="M260 180v56M296 180v56M332 180v56" stroke="#f0cf8a" stroke-width="9"/>
    <path d="M248 260h116M248 156h116" stroke="#7b552f" stroke-width="8"/>
    <path d="M76 326h568M116 348h488" stroke="#b88a51" stroke-width="7"/>
    <path d="M76 90h568M116 68h488" stroke="#b88a51" stroke-width="7"/>
  </g>
</svg>
